<svg width="24" height="24" viewBox="0 0 24 24" fill="none" xmlns="http://www.w3.org/2000/svg">
<path d="M16.3948 0.00394463C17.2992 -0.0271046 18.2003 0.125407 19.0434 0.452172C19.8865 0.778938 20.6538 1.2731 21.2984 1.90451C21.9199 2.54553 22.4058 3.30392 22.7274 4.13486C23.049 4.96579 23.1999 5.85242 23.1711 6.74233V16.3028C23.1711 18.2993 22.5147 20.0175 21.2598 21.227C19.9286 22.4491 18.167 23.1009 16.3562 23.0412H6.81928C5.02363 23.0965 3.27865 22.4445 1.96394 21.227C1.31223 20.5779 0.801916 19.8023 0.464794 18.9485C0.127671 18.0947 -0.0290401 17.181 0.00442272 16.2644V6.74233C0.00442272 2.69162 2.7072 0.00394463 6.78067 0.00394463H16.3948ZM16.4431 2.14449H6.81928C5.41963 2.14449 4.21303 2.55724 3.41185 3.34434C2.98375 3.79778 2.65197 4.33239 2.43636 4.91623C2.22076 5.50007 2.12574 6.12114 2.15699 6.74233V16.2644C2.15699 17.7042 2.57206 18.8561 3.41185 19.7008C4.34848 20.5245 5.57006 20.9547 6.81928 20.9006H16.3562C17.6055 20.9547 18.827 20.5245 19.7637 19.7008C20.2133 19.2584 20.5657 18.7279 20.7983 18.1429C21.0309 17.558 21.1388 16.9314 21.115 16.3028V6.74233C21.1462 5.50664 20.6967 4.30664 19.8602 3.39233C19.4042 2.96662 18.8666 2.6367 18.2795 2.4223C17.6923 2.20789 17.0678 2.11341 16.4431 2.14449ZM11.5878 5.53287C14.86 5.53287 17.5725 8.22055 17.5725 11.4842C17.5725 13.0625 16.9419 14.5763 15.8196 15.6923C14.6972 16.8084 13.175 17.4354 11.5878 17.4354C10.0005 17.4354 8.47827 16.8084 7.35592 15.6923C6.23357 14.5763 5.60303 13.0625 5.60303 11.4842C5.60303 9.90578 6.23357 8.39205 7.35592 7.27596C8.47827 6.15988 10.0005 5.53287 11.5878 5.53287ZM11.5878 7.66382C10.573 7.66886 9.60119 8.07197 8.88362 8.78553C8.16605 9.49909 7.76068 10.4654 7.7556 11.4746C7.76068 12.4837 8.16605 13.45 8.88362 14.1636C9.60119 14.8771 10.573 15.2802 11.5878 15.2853C12.6025 15.2802 13.5743 14.8771 14.2919 14.1636C15.0095 13.45 15.4148 12.4837 15.4199 11.4746C15.4148 10.4654 15.0095 9.49909 14.2919 8.78553C13.5743 8.07197 12.6025 7.66886 11.5878 7.66382ZM17.8041 4.04505C18.1626 4.04505 18.5063 4.18664 18.7597 4.43866C19.0132 4.69067 19.1555 5.03248 19.1555 5.38889C19.1555 5.7453 19.0132 6.08711 18.7597 6.33913C18.5063 6.59115 18.1626 6.73273 17.8041 6.73273C17.4457 6.73273 17.102 6.59115 16.8486 6.33913C16.5951 6.08711 16.4528 5.7453 16.4528 5.38889C16.4528 5.03248 16.5951 4.69067 16.8486 4.43866C17.102 4.18664 17.4457 4.04505 17.8041 4.04505Z" fill="#EEEEEE"/>
</svg>
