<svg width="24" height="24" viewBox="0 0 24 24" fill="none" xmlns="http://www.w3.org/2000/svg">
<path d="M21.4581 0H1.70854C0.772222 0 0 0.739076 0 1.65092V21.3852C0 22.2971 0.772222 23.0361 1.70854 23.0361H21.4581C22.4041 23.0361 23.1667 22.2971 23.1667 21.3852V1.65092C23.1667 0.739076 22.3944 0 21.4581 0ZM7.01757 19.2928H3.52326V8.86891H7.01757V19.2928ZM5.28007 7.44835H5.25111C4.07347 7.44835 3.32055 6.65168 3.32055 5.65345C3.32055 4.63602 4.09278 3.85855 5.29937 3.85855C6.49632 3.85855 7.22993 4.62642 7.24923 5.65345C7.24923 6.65168 6.49632 7.44835 5.27041 7.44835H5.28007ZM19.6337 19.2928H16.1298V13.7257C16.1298 12.3339 15.6278 11.3741 14.3633 11.3741C13.3981 11.3741 12.8189 12.0172 12.5583 12.6411C12.4617 12.8618 12.4521 13.169 12.4521 13.4857V19.2928H8.95777C8.95777 19.2928 9.00604 9.86714 8.95777 8.88811H12.4617V10.3663C12.778 9.82039 13.2384 9.3709 13.793 9.06638C14.3477 8.76187 14.9755 8.61392 15.6085 8.63855C17.9155 8.63855 19.6434 10.1359 19.6434 13.3322V19.2928H19.6337Z" fill="#EEEEEE"/>
</svg>
