<svg width="24" height="20" viewBox="0 0 24 20" fill="none" xmlns="http://www.w3.org/2000/svg">
<path d="M23.1667 2.27499C22.3011 2.66897 21.3798 2.92799 20.4349 3.04292C21.4372 2.42857 22.1814 1.47362 22.5296 0.355169C21.6126 0.911918 20.599 1.31508 19.5083 1.52626C19.0681 1.04496 18.5315 0.660544 17.9331 0.397696C17.3346 0.134848 16.6875 -0.000617147 16.0333 2.11359e-06C15.3055 0.00740084 14.5888 0.17872 13.9372 0.501087C13.2855 0.823455 12.7158 1.28849 12.2708 1.86125C11.8258 2.43401 11.5172 3.09961 11.368 3.80803C11.2188 4.51645 11.2331 5.24928 11.4096 5.95145C9.50794 5.84821 7.65033 5.34271 5.96079 4.4687C4.27125 3.5947 2.78866 2.37229 1.61201 0.883121C0.998183 1.951 0.809335 3.20896 1.08277 4.40857C1.3562 5.60817 2.07203 6.66221 3.08889 7.36252C2.33177 7.33508 1.59284 7.12419 0.936319 6.74818V6.81537C0.936319 9.15756 2.57729 11.1158 4.74916 11.5669C4.05051 11.7574 3.31688 11.7837 2.60625 11.6437C3.21437 13.5731 4.97118 14.9746 7.04653 15.013C6.06822 15.8022 4.94011 16.3874 3.72948 16.7338C2.51884 17.0801 1.25047 17.1805 0 17.0288C2.16269 18.4472 4.69716 19.2017 7.28784 19.1982C16.0333 19.1982 20.8017 11.8069 20.8017 5.4043V4.78036C21.7284 4.09882 22.5296 3.2445 23.1667 2.27499Z" fill="#EEEEEE"/>
</svg>
