<?xml version="1.0" encoding="utf-8"?>
<!-- Generator: Adobe Illustrator 23.0.4, SVG Export Plug-In . SVG Version: 6.00 Build 0)  -->
<svg version="1.1" id="Capa_1" xmlns="http://www.w3.org/2000/svg" xmlns:xlink="http://www.w3.org/1999/xlink" x="0px" y="0px"
	 viewBox="0 0 512 512" style="enable-background:new 0 0 512 512;" xml:space="preserve">
<style type="text/css">
	.st0{fill:#FFFFFF;}
</style>
<g>
	<g>
		<g>
			<path class="st0" d="M508.9,478.7L33.3,3.1C29.1-1,22.4-1,18.2,3.1L3.1,18.2C-1,22.4-1,29.1,3.1,33.3l88.2,88.2
				c-42.1,33.3-74,78.8-90.8,131.2c-0.7,2.1-0.7,4.4,0,6.5C36.8,372.2,139.5,448,256,448c45.6,0,89.4-11.5,128.5-33.3l94.2,94.2
				c4.2,4.2,10.9,4.2,15.1,0l15.1-15.1C513,489.6,513,482.9,508.9,478.7z M256,405.3c-82.3,0-149.3-67-149.3-149.3
				c0-32.4,10.7-63.7,29.9-89.3l46.4,46.4c-7.7,12.9-12.2,27.4-12.2,42.9c0,47.1,38.3,85.3,85.3,85.3c15.5,0,30-4.6,42.9-12.2
				l46.4,46.4C319.7,394.7,288.4,405.3,256,405.3z"/>
			<path class="st0" d="M247,177.3c-1.7,4-0.8,8.6,2.3,11.7l73.8,73.8c2,2,4.8,3.1,7.5,3.1c1.4,0,2.8-0.3,4.1-0.8
				c4-1.7,6.6-5.6,6.5-10c-0.5-46.7-37.6-83.8-84.3-84.3C252.7,171.2,248.7,173.3,247,177.3z"/>
			<path class="st0" d="M179.6,119.3c3.2,3.2,8.1,4,12.1,2.1c20.4-9.8,42-14.7,64.2-14.7c82.3,0,149.3,67,149.3,149.3
				c0,22.2-4.9,43.9-14.7,64.2c-1.9,4.1-1.1,8.9,2.1,12.1l37,37c2,2,4.7,3.1,7.5,3.1c0,0,0,0,0,0c2.8,0,5.6-1.1,7.6-3.2
				c30.3-30.6,53.4-68.7,66.7-110.1c0.7-2.1,0.7-4.4,0-6.5C475.2,139.8,372.5,64,256,64c-32,0-63.4,5.7-93.4,16.9
				c-3.4,1.3-5.9,4.2-6.7,7.7c-0.8,3.5,0.3,7.2,2.9,9.8L179.6,119.3z"/>
		</g>
	</g>
</g>
</svg>
