<?xml version="1.0" encoding="utf-8"?>
<!-- Generator: Adobe Illustrator 23.0.4, SVG Export Plug-In . SVG Version: 6.00 Build 0)  -->
<svg version="1.1" id="Capa_1" xmlns="http://www.w3.org/2000/svg" xmlns:xlink="http://www.w3.org/1999/xlink" x="0px" y="0px"
	 viewBox="0 0 535.5 535.5" style="enable-background:new 0 0 535.5 535.5;" xml:space="preserve">
<style type="text/css">
	.st0{fill:#FFFFFF;}
</style>
<g>
	<g id="lock">
		<path class="st0" d="M420.8,178.5h-25.5v-51C395.2,56.1,339.1,0,267.8,0S140.2,56.1,140.2,127.5v51h-25.5c-28.1,0-51,22.9-51,51
			v255c0,28,22.9,51,51,51h306c28,0,51-23,51-51v-255C471.8,201.4,448.8,178.5,420.8,178.5z M267.8,408c-28.1,0-51-23-51-51
			s22.9-51,51-51s51,23,51,51S295.8,408,267.8,408z M346.8,178.5H188.7v-51c0-43.3,35.7-79.1,79.1-79.1s79,35.7,79,79.1V178.5z"/>
	</g>
</g>
</svg>
